<svg width="465" height="971" viewBox="0 0 465 971" fill="none" xmlns="http://www.w3.org/2000/svg">
<g clip-path="url(#clip0_1_2)">
<path fill-rule="evenodd" clip-rule="evenodd" d="M231.35 2.0918C406.96 8.2497 460.21 32.4018 440.76 290.482C437.71 297.612 434.65 304.742 431.6 311.862C435.2 430.962 438.8 550.782 431.6 669.152C443.29 681.922 437.71 699.012 440.76 713.942C445.76 752.392 447.88 806.672 442.8 859.512C434.3 978.212 310.63 967.352 240.23 969.442C161.78 967.692 55.97 993.282 26.47 860.522C23.586 799.322 22.866 750.362 26.465 683.402C29.179 678.312 31.894 673.232 34.608 668.142C31.331 550.492 27.334 435.002 33.414 310.882C29.815 301.042 26.216 291.202 22.617 281.372C9.42101 27.0418 59.566 10.9718 231.347 2.0918H231.35Z" fill="url(#paint0_radial_1_2)" stroke="black" stroke-width="0.75"/>
<path fill-rule="evenodd" clip-rule="evenodd" d="M431.6 98.096C394.28 23.787 309.11 14.626 228.01 12.59C141.83 16.323 73.97 18.019 30.54 109.29C42.412 74.684 30.876 4.45 229.03 0.369995C408.87 3.7681 419.72 51.95 431.6 98.096Z" fill="#BF0000" stroke="black" stroke-width="0.75"/>
<path fill-rule="evenodd" clip-rule="evenodd" d="M62.092 234.5C142.51 143.22 322.682 135.42 401.062 235.52C395.632 283.02 390.202 330.52 384.782 378.03C310.812 361.4 194.082 343.76 80.422 383.12C74.309 333.58 68.202 284.04 62.094 234.5H62.092Z" fill="black" fill-opacity="0.83065" stroke="black" stroke-width="1.33333"/>
<path fill-rule="evenodd" clip-rule="evenodd" d="M93.648 706.82C192.73 717.34 284.678 723.78 372.558 701.73V847.29C285.358 905.31 179.828 902.26 95.678 850.34C95.003 802.5 94.325 754.66 93.646 706.82H93.648Z" fill="black" fill-opacity="0.83065" stroke="black" stroke-width="1.33333"/>
<path fill-rule="evenodd" clip-rule="evenodd" d="M440.25 292.01C463.49 302.7 467.4 327.64 460.1 333.24C451.96 332.39 439.74 320.85 431.6 318.99C431.43 316.61 431.26 314.24 431.09 311.86C434.48 305.41 436.86 298.46 440.25 292.01Z" fill="url(#paint1_linear_1_2)" fill-opacity="0.75" stroke="black" stroke-width="1.33333"/>
<path fill-rule="evenodd" clip-rule="evenodd" d="M25.21 289.54C1.51899 299.2 -3.47601 323.94 3.56499 329.85C11.738 329.36 24.449 318.38 32.667 316.87C32.941 314.5 33.215 312.14 33.489 309.77C30.383 303.18 28.316 296.13 25.21 289.54Z" fill="url(#paint2_linear_1_2)" fill-opacity="0.75" stroke="black" stroke-width="1.33333"/>
<path fill-rule="evenodd" clip-rule="evenodd" d="M381.72 45.164C356.78 51.271 360.85 64.504 384.78 84.863C404.29 98.944 416.16 101.32 417.35 79.773C415.65 67.219 386.98 46.521 381.72 45.164Z" fill="url(#paint3_radial_1_2)" fill-opacity="0.75"/>
<path fill-rule="evenodd" clip-rule="evenodd" d="M83.154 44.172C108.5 48.248 105.51 61.766 83.311 83.988C65 99.596 53.354 102.92 50.433 81.541C51.112 68.891 78.021 45.948 83.154 44.172Z" fill="url(#paint4_radial_1_2)" fill-opacity="0.75" stroke="black" stroke-width="1.33333"/>
<path fill-rule="evenodd" clip-rule="evenodd" d="M49.877 270.13C40.716 417.39 42.752 553.45 47.841 695.62C51.913 720.73 54.967 746.86 59.038 771.96C71.423 710.04 79.227 579.41 73.289 456.41C68.03 390.24 59.717 332.73 49.877 270.13Z" fill="black" fill-opacity="0.83065" stroke="black" stroke-width="1.33333"/>
<path fill-rule="evenodd" clip-rule="evenodd" d="M417.24 258.62C426.4 405.88 424.37 541.94 419.28 684.11C415.2 709.22 412.15 735.35 408.08 760.46C395.69 698.53 387.89 567.9 393.83 444.9C399.09 378.74 407.4 321.22 417.24 258.62Z" fill="black" fill-opacity="0.83065" stroke="black" stroke-width="1.33333"/>
<path fill-rule="evenodd" clip-rule="evenodd" d="M193.21 897.5L275.98 896.78L273.82 905.42L197.52 906.14L193.21 897.5Z" fill="black" fill-opacity="0.58065" stroke="black" stroke-width="1.33333"/>
<path fill-rule="evenodd" clip-rule="evenodd" d="M252.23 921.617C252.23 924.003 250.448 926.292 247.276 927.979C244.104 929.666 239.801 930.614 235.315 930.614C230.829 930.614 226.526 929.666 223.354 927.979C220.182 926.292 218.4 924.003 218.4 921.617C218.4 919.231 220.182 916.942 223.354 915.255C226.526 913.568 230.829 912.62 235.315 912.62C239.801 912.62 244.104 913.568 247.276 915.255C250.448 916.942 252.23 919.231 252.23 921.617Z" fill="#29007D" stroke="black" stroke-width="1.33333"/>
<path fill-rule="evenodd" clip-rule="evenodd" d="M354.44 918.38C359.96 908.3 403.62 890.3 412.02 896.78C418.02 914.78 386.59 933.49 373.87 937.81C363.07 937.81 353.72 929.17 354.44 918.38Z" fill="#FF0000" fill-opacity="0.71774" stroke="black" stroke-width="1.33333"/>
<path fill-rule="evenodd" clip-rule="evenodd" d="M118 920.24C112.48 910.16 68.817 892.17 60.42 898.65C54.421 916.64 85.852 935.36 98.568 939.67C109.36 939.67 118.72 931.04 118 920.24Z" fill="#FF0000" fill-opacity="0.71774" stroke="black" stroke-width="1.33333"/>
<path d="M382.51 380.7C370.99 488.67 370.27 595.19 371.71 697.4" stroke="black" stroke-opacity="0.64516" stroke-width="3.5"/>
<path d="M80.92 384.3C90.757 502.1 94.116 601.91 94.596 703.16" stroke="black" stroke-opacity="0.66129" stroke-width="2.75"/>
<path d="M222.3 686.63C221.84 685.62 222.54 688.85 222.74 689.94C223.14 692.12 223.63 694.27 224.18 696.41C225.82 702.77 227.99 708.93 230.32 715.05C230.89 716.49 231.47 717.93 232.05 719.36L231.22 719.52C230.62 718.08 230.02 716.65 229.43 715.22C225.75 706.19 220.7 696.29 218.81 686.63H222.3Z" fill="black" fill-opacity="0.75"/>
<path fill-rule="evenodd" clip-rule="evenodd" d="M169.45 937.09C169.09 942.73 167.29 947.65 165.13 952.93C212.76 955.56 264.34 956.04 313.41 950.05C310.41 946.21 308.49 940.93 307.65 934.21C263.74 938.77 216.24 939.01 169.45 937.09Z" fill="#E1BD23" stroke="black" stroke-width="1.33333"/>
<path fill-rule="evenodd" clip-rule="evenodd" d="M251.12 31.2786C251.12 33.8417 249.148 36.2998 245.638 38.1121C242.129 39.9245 237.369 40.9426 232.405 40.9426C227.441 40.9426 222.681 39.9245 219.171 38.1121C215.662 36.2998 213.69 33.8417 213.69 31.2786C213.69 28.7155 215.662 26.2575 219.171 24.4451C222.681 22.6327 227.441 21.6146 232.405 21.6146C237.369 21.6146 242.129 22.6327 245.638 24.4451C249.148 26.2575 251.12 28.7155 251.12 31.2786Z" fill="#0A007D" stroke="black" stroke-width="0.465333"/>
<path d="M223.83 35.7786H226.348L228.176 27.3393L230.342 32.9234H233.037L235.23 27.3252L237.058 35.7786H239.577L236.72 25.3821H234.283L231.696 31.5585L229.124 25.3821H226.673L223.83 35.7786Z" fill="white"/>
<path d="M61.583 229.32C67.691 92.44 125.71 27.75 231.073 20.8C362.043 24.717 393.263 108.3 401.063 229.86" stroke="black" stroke-opacity="0.46774" stroke-width="2.4343"/>
<path d="M201.446 948.467V949.14H194.686C194.686 948.99 194.726 948.841 194.833 948.617C195.007 948.393 195.288 948.169 195.663 947.87C196.038 947.646 196.587 947.347 197.31 947.048C198.421 946.525 199.17 946.151 199.558 945.853C199.947 945.554 200.134 945.255 200.134 944.956C200.134 944.732 199.96 944.433 199.612 944.284C199.251 944.06 198.782 943.985 198.22 943.985C197.618 943.985 197.136 944.06 196.774 944.284C196.399 944.508 196.225 944.807 196.212 945.106L194.927 945.031C195.021 944.508 195.355 944.134 195.931 943.836C196.506 943.537 197.269 943.387 198.247 943.387C199.224 943.387 200 943.537 200.576 943.836C201.138 944.209 201.433 944.583 201.433 945.031C201.433 945.255 201.339 945.479 201.178 945.703C201.004 945.927 200.736 946.152 200.348 946.376C199.96 946.6 199.318 946.973 198.407 947.347C197.658 947.72 197.176 947.944 196.962 948.094C196.747 948.243 196.573 948.318 196.44 948.467H201.446ZM202.985 947.795L204.19 947.72C204.284 948.094 204.485 948.318 204.779 948.467C205.06 948.617 205.435 948.691 205.877 948.691C206.265 948.691 206.6 948.617 206.894 948.542C207.189 948.393 207.416 948.318 207.603 948.094C207.791 947.944 207.952 947.72 208.072 947.421C208.206 947.197 208.259 946.899 208.259 946.6V946.45C208.005 946.674 207.657 946.824 207.229 946.973C206.8 947.123 206.318 947.197 205.823 947.197C204.966 947.197 204.257 947.048 203.668 946.674C203.092 946.376 202.798 945.927 202.798 945.33C202.798 944.732 203.106 944.284 203.708 943.91C204.324 943.611 205.087 943.387 206.011 943.387C206.666 943.387 207.282 943.537 207.831 943.686C208.38 943.91 208.795 944.209 209.076 944.583C209.37 944.956 209.504 945.479 209.504 946.151C209.504 946.899 209.37 947.496 209.089 947.944C208.795 948.318 208.38 948.691 207.818 948.916C207.255 949.14 206.6 949.214 205.85 949.214C205.047 949.214 204.404 949.14 203.896 948.841C203.387 948.617 203.079 948.243 202.985 947.795ZM208.112 945.33C208.112 944.881 207.925 944.583 207.537 944.359C207.162 944.134 206.693 943.985 206.158 943.985C205.596 943.985 205.114 944.134 204.699 944.359C204.284 944.657 204.083 944.956 204.083 945.33C204.083 945.703 204.284 946.002 204.672 946.226C205.06 946.45 205.542 946.6 206.118 946.6C206.707 946.6 207.175 946.45 207.55 946.226C207.925 946.002 208.112 945.703 208.112 945.33ZM210.749 947.646L211.994 947.571C212.141 947.944 212.382 948.243 212.73 948.393C213.078 948.542 213.493 948.691 214.002 948.691C214.591 948.691 215.086 948.542 215.488 948.318C215.903 948.094 216.104 947.795 216.104 947.496C216.104 947.123 215.916 946.898 215.541 946.674C215.153 946.45 214.685 946.376 214.096 946.376C213.868 946.376 213.574 946.376 213.212 946.45L213.359 945.853H213.56C214.096 945.853 214.578 945.778 214.993 945.629C215.421 945.479 215.635 945.18 215.635 944.882C215.635 944.657 215.488 944.433 215.167 944.209C214.859 944.06 214.457 943.985 213.962 943.985C213.48 943.985 213.078 944.06 212.744 944.284C212.422 944.433 212.208 944.657 212.128 945.031L210.87 944.882C211.017 944.433 211.365 944.06 211.914 943.836C212.463 943.537 213.132 943.387 213.935 943.387C214.497 943.387 215.006 943.462 215.474 943.611C215.943 943.761 216.304 943.91 216.559 944.134C216.8 944.359 216.934 944.657 216.934 944.882C216.934 945.106 216.813 945.33 216.572 945.554C216.331 945.778 215.983 945.927 215.528 946.077C216.13 946.151 216.599 946.301 216.934 946.525C217.268 946.749 217.429 947.123 217.429 947.421C217.429 947.944 217.108 948.393 216.452 948.691C215.809 949.065 214.979 949.214 213.989 949.214C213.092 949.214 212.342 949.065 211.753 948.766C211.164 948.467 210.83 948.094 210.749 947.646ZM218.861 947.795L220.066 947.72C220.173 948.094 220.374 948.318 220.655 948.467C220.949 948.617 221.311 948.691 221.766 948.691C222.154 948.691 222.489 948.617 222.783 948.542C223.064 948.393 223.305 948.318 223.493 948.094C223.68 947.944 223.827 947.72 223.961 947.421C224.082 947.197 224.149 946.899 224.149 946.6C224.149 946.6 224.149 946.525 224.135 946.45C223.894 946.674 223.546 946.824 223.118 946.973C222.676 947.123 222.208 947.197 221.699 947.197C220.856 947.197 220.146 947.048 219.557 946.674C218.968 946.376 218.674 945.927 218.674 945.33C218.674 944.732 218.982 944.284 219.597 943.91C220.2 943.611 220.963 943.387 221.886 943.387C222.556 943.387 223.158 943.537 223.707 943.686C224.256 943.91 224.684 944.209 224.965 944.583C225.246 944.956 225.393 945.479 225.393 946.151C225.393 946.899 225.246 947.496 224.965 947.944C224.684 948.318 224.269 948.691 223.707 948.916C223.145 949.14 222.489 949.214 221.739 949.214C220.936 949.214 220.28 949.14 219.785 948.841C219.276 948.617 218.968 948.243 218.861 947.795ZM224.001 945.33C224.001 944.881 223.814 944.583 223.426 944.359C223.038 944.134 222.582 943.985 222.047 943.985C221.485 943.985 221.003 944.134 220.588 944.359C220.173 944.657 219.972 944.956 219.972 945.33C219.972 945.703 220.16 946.002 220.561 946.226C220.949 946.45 221.431 946.6 222.007 946.6C222.582 946.6 223.064 946.45 223.439 946.226C223.814 946.002 224.001 945.703 224.001 945.33ZM226.625 947.646L227.883 947.571C228.031 947.944 228.271 948.243 228.619 948.393C228.968 948.542 229.382 948.691 229.878 948.691C230.467 948.691 230.962 948.542 231.377 948.318C231.779 948.094 231.979 947.795 231.979 947.496C231.979 947.123 231.792 946.898 231.417 946.674C231.042 946.45 230.56 946.376 229.985 946.376C229.744 946.376 229.449 946.376 229.101 946.45L229.235 945.853H229.436C229.971 945.853 230.453 945.778 230.882 945.629C231.31 945.479 231.524 945.18 231.524 944.882C231.524 944.657 231.364 944.433 231.056 944.209C230.748 944.06 230.346 943.985 229.851 943.985C229.369 943.985 228.954 944.06 228.633 944.284C228.312 944.433 228.097 944.657 228.004 945.031L226.745 944.882C226.906 944.433 227.254 944.06 227.803 943.836C228.338 943.537 229.021 943.387 229.824 943.387C230.386 943.387 230.895 943.462 231.364 943.611C231.832 943.761 232.194 943.91 232.435 944.134C232.689 944.359 232.809 944.657 232.809 944.882C232.809 945.106 232.689 945.33 232.461 945.554C232.22 945.778 231.872 945.927 231.404 946.077C232.006 946.151 232.475 946.301 232.809 946.525C233.144 946.749 233.318 947.123 233.318 947.421C233.318 947.944 232.983 948.393 232.341 948.691C231.685 949.065 230.868 949.214 229.878 949.214C228.981 949.214 228.231 949.065 227.642 948.766C227.053 948.467 226.705 948.094 226.625 947.646ZM237.909 949.14L241.831 943.462H243.277L247.467 949.14H245.928L244.736 947.421H240.466L239.342 949.14H237.909ZM240.854 946.824H244.308L243.25 945.255C242.929 944.732 242.675 944.358 242.528 944.06C242.394 944.433 242.206 944.732 241.979 945.106L240.854 946.824ZM248.498 949.14V943.462H252.326C253.116 943.462 253.745 943.462 254.214 943.611C254.682 943.761 255.057 943.91 255.311 944.134C255.579 944.359 255.713 944.657 255.713 944.882C255.713 945.106 255.606 945.404 255.365 945.554C255.124 945.778 254.762 946.002 254.294 946.077C254.91 946.226 255.378 946.376 255.713 946.6C256.047 946.899 256.208 947.123 256.208 947.496C256.208 947.72 256.114 948.019 255.914 948.243C255.713 948.467 255.458 948.617 255.164 948.766C254.869 948.916 254.495 948.99 254.04 949.065C253.598 949.14 253.049 949.14 252.393 949.14H248.498ZM249.85 945.853H252.058C252.661 945.853 253.089 945.778 253.343 945.778C253.691 945.703 253.946 945.629 254.12 945.479C254.294 945.33 254.388 945.18 254.388 944.956C254.388 944.807 254.307 944.657 254.147 944.508C253.986 944.359 253.745 944.209 253.451 944.209C253.143 944.134 252.621 944.134 251.898 944.134H249.85V945.853ZM249.85 948.467H252.393H253.317C253.625 948.393 253.892 948.318 254.093 948.318C254.307 948.243 254.481 948.094 254.615 947.944C254.749 947.795 254.816 947.646 254.816 947.496C254.816 947.272 254.709 947.123 254.521 946.899C254.321 946.749 254.053 946.674 253.705 946.6C253.357 946.525 252.862 946.525 252.219 946.525H249.85V948.467ZM268.041 944.807L266.796 944.882C266.689 944.583 266.529 944.433 266.314 944.284C265.98 944.06 265.565 943.985 265.07 943.985C264.668 943.985 264.32 944.06 264.012 944.209C263.624 944.359 263.303 944.583 263.075 944.882C262.847 945.18 262.74 945.629 262.727 946.226C263.022 945.927 263.396 945.778 263.838 945.629C264.266 945.479 264.722 945.404 265.203 945.404C266.047 945.404 266.756 945.628 267.345 945.927C267.934 946.301 268.229 946.749 268.229 947.272C268.229 947.646 268.081 947.944 267.814 948.318C267.533 948.617 267.158 948.841 266.676 948.99C266.181 949.14 265.632 949.214 265.029 949.214C263.985 949.214 263.129 948.99 262.473 948.617C261.803 948.169 261.482 947.421 261.482 946.45C261.482 945.404 261.844 944.583 262.566 944.06C263.209 943.611 264.066 943.387 265.15 943.387C265.953 943.387 266.609 943.537 267.118 943.761C267.626 944.06 267.934 944.358 268.041 944.807ZM262.928 947.272C262.928 947.496 263.008 947.795 263.196 948.019C263.383 948.169 263.637 948.393 263.972 948.467C264.293 948.617 264.641 948.691 265.003 948.691C265.538 948.691 265.993 948.542 266.368 948.318C266.756 948.094 266.944 947.72 266.944 947.347C266.944 946.973 266.756 946.6 266.381 946.376C266.007 946.152 265.525 946.077 264.949 946.077C264.387 946.077 263.905 946.152 263.517 946.376C263.115 946.6 262.928 946.899 262.928 947.272ZM276.073 948.467V949.14H269.313C269.313 948.99 269.353 948.841 269.46 948.617C269.634 948.393 269.915 948.169 270.29 947.87C270.665 947.646 271.214 947.347 271.923 947.048C273.034 946.525 273.784 946.151 274.185 945.853C274.574 945.554 274.761 945.255 274.761 944.956C274.761 944.732 274.587 944.433 274.226 944.284C273.878 944.06 273.409 943.985 272.847 943.985C272.231 943.985 271.749 944.06 271.388 944.284C271.026 944.508 270.852 944.807 270.839 945.106L269.554 945.031C269.648 944.508 269.969 944.134 270.544 943.836C271.12 943.537 271.896 943.387 272.874 943.387C273.851 943.387 274.627 943.537 275.203 943.836C275.765 944.209 276.059 944.583 276.059 945.031C276.059 945.255 275.966 945.479 275.805 945.703C275.631 945.927 275.363 946.152 274.975 946.376C274.587 946.6 273.931 946.973 273.034 947.347C272.285 947.72 271.803 947.944 271.589 948.094C271.374 948.243 271.2 948.318 271.053 948.467H276.073Z" fill="black"/>
<path d="M406.98 762.9C402.18 875.19 338.36 944.29 237.11 935.65C150.26 938.53 67.72 885.27 58.61 775.86" stroke="black" stroke-opacity="0.52419" stroke-width="1.625"/>
</g>
<defs>
<radialGradient id="paint0_radial_1_2" cx="0" cy="0" r="1" gradientUnits="userSpaceOnUse" gradientTransform="translate(233.166 486.237) scale(279.083 635.063)">
<stop stop-color="#FF0A31"/>
<stop offset="1" stop-color="#C60200"/>
</radialGradient>
<linearGradient id="paint1_linear_1_2" x1="430.47" y1="312.62" x2="464.055" y2="312.62" gradientUnits="userSpaceOnUse">
<stop stop-color="#FF0A31"/>
<stop offset="1" stop-color="#C60200"/>
</linearGradient>
<linearGradient id="paint2_linear_1_2" x1="0.00438233" y1="309.702" x2="34.1142" y2="309.702" gradientUnits="userSpaceOnUse">
<stop stop-color="#FF0A31"/>
<stop offset="1" stop-color="#C60200"/>
</linearGradient>
<radialGradient id="paint3_radial_1_2" cx="0" cy="0" r="1" gradientUnits="userSpaceOnUse" gradientTransform="translate(406.787 75.561) scale(112.726 108.459)">
<stop stop-color="#6B5635"/>
<stop offset="1" stop-color="white"/>
</radialGradient>
<radialGradient id="paint4_radial_1_2" cx="0" cy="0" r="1" gradientUnits="userSpaceOnUse" gradientTransform="translate(64.4633 72.0841) scale(87.2626 90.3227)">
<stop stop-color="#6B5635"/>
<stop offset="1" stop-color="white"/>
</radialGradient>
<clipPath id="clip0_1_2">
<rect width="464.05" height="970.73" fill="white"/>
</clipPath>
</defs>
</svg>
